<svg width="16" height="16" viewBox="0 0 16 16" fill="none" xmlns="http://www.w3.org/2000/svg">
    <path d="M6.10282 3.60538C6.94749 2.09071 7.36949 1.33337 8.00083 1.33337C8.63216 1.33337 9.05416 2.09071 9.89883 3.60538L10.1175 3.99738C10.3575 4.42805 10.4775 4.64338 10.6642 4.78538C10.8508 4.92739 11.0842 4.98005 11.5508 5.08539L11.9748 5.18139C13.6148 5.55272 14.4342 5.73805 14.6295 6.36539C14.8242 6.99206 14.2655 7.64606 13.1475 8.9534L12.8582 9.2914C12.5408 9.66273 12.3815 9.84873 12.3102 10.0781C12.2388 10.3081 12.2628 10.5561 12.3108 11.0514L12.3548 11.5027C12.5235 13.2474 12.6082 14.1194 12.0975 14.5067C11.5868 14.8947 10.8188 14.5407 9.28416 13.8341L8.88616 13.6514C8.45016 13.4501 8.23216 13.3501 8.00083 13.3501C7.76949 13.3501 7.55149 13.4501 7.11549 13.6514L6.71816 13.8341C5.18282 14.5407 4.41482 14.8941 3.90482 14.5074C3.39348 14.1194 3.47815 13.2474 3.64681 11.5027L3.69081 11.0521C3.73881 10.5561 3.76281 10.3081 3.69081 10.0787C3.62015 9.84873 3.46081 9.66273 3.14348 9.29207L2.85415 8.9534C1.73614 7.64673 1.17747 6.99272 1.37214 6.36539C1.56748 5.73805 2.38748 5.55205 4.02748 5.18139L4.45148 5.08539C4.91749 4.98005 5.15015 4.92739 5.33749 4.78538C5.52415 4.64338 5.64415 4.42805 5.88415 3.99738L6.10282 3.60538Z" fill="#F16060"/>
</svg>
