<svg width="220" height="44" viewBox="0 0 220 44" fill="none" xmlns="http://www.w3.org/2000/svg">
<path d="M17.306 11.125C19.3972 7.37507 20.442 5.50012 22.005 5.50012C23.568 5.50012 24.6127 7.37507 26.7039 11.125L27.2452 12.0954C27.8394 13.1617 28.1365 13.6948 28.5986 14.0463C29.0608 14.3979 29.6384 14.5283 30.7938 14.789L31.8435 15.0267C35.9037 15.946 37.9321 16.4049 38.4157 17.958C38.8977 19.5094 37.5145 21.1285 34.7467 24.3651L34.0304 25.2019C33.2448 26.1212 32.8503 26.5817 32.6737 27.1495C32.4971 27.7189 32.5565 28.3329 32.6753 29.5592L32.7843 30.6766C33.2018 34.9959 33.4115 37.1547 32.1472 38.1137C30.8829 39.0742 28.9816 38.1978 25.1821 36.4483L24.1968 35.9961C23.1174 35.4976 22.5777 35.2501 22.005 35.2501C21.4322 35.2501 20.8925 35.4976 19.8131 35.9961L18.8294 36.4483C15.0284 38.1978 13.127 39.0726 11.8644 38.1153C10.5985 37.1547 10.8081 34.9959 11.2257 30.6766L11.3346 29.5609C11.4534 28.3329 11.5129 27.7189 11.3346 27.1511C11.1596 26.5817 10.7652 26.1212 9.97955 25.2036L9.26324 24.3651C6.49539 21.1302 5.11228 19.5111 5.59422 17.958C6.07781 16.4049 8.10791 15.9444 12.1681 15.0267L13.2178 14.789C14.3715 14.5283 14.9475 14.3979 15.4113 14.0463C15.8734 13.6948 16.1705 13.1617 16.7647 12.0954L17.306 11.125Z" fill="#E3E3E3"/>
<path d="M61.306 11.125C63.3972 7.37507 64.442 5.50012 66.005 5.50012C67.568 5.50012 68.6127 7.37507 70.7039 11.125L71.2452 12.0954C71.8394 13.1617 72.1365 13.6948 72.5986 14.0463C73.0608 14.3979 73.6384 14.5283 74.7938 14.789L75.8435 15.0267C79.9037 15.946 81.9321 16.4049 82.4157 17.958C82.8977 19.5094 81.5145 21.1285 78.7467 24.3651L78.0304 25.2019C77.2448 26.1212 76.8503 26.5817 76.6737 27.1495C76.4971 27.7189 76.5565 28.3329 76.6753 29.5592L76.7843 30.6766C77.2018 34.9959 77.4115 37.1547 76.1472 38.1137C74.8829 39.0742 72.9816 38.1978 69.1821 36.4483L68.1968 35.9961C67.1174 35.4976 66.5777 35.2501 66.005 35.2501C65.4322 35.2501 64.8925 35.4976 63.8131 35.9961L62.8294 36.4483C59.0284 38.1978 57.127 39.0726 55.8644 38.1153C54.5985 37.1547 54.8081 34.9959 55.2257 30.6766L55.3346 29.5609C55.4534 28.3329 55.5129 27.7189 55.3346 27.1511C55.1596 26.5817 54.7652 26.1212 53.9796 25.2036L53.2632 24.3651C50.4954 21.1302 49.1123 19.5111 49.5942 17.958C50.0778 16.4049 52.1079 15.9444 56.1681 15.0267L57.2178 14.789C58.3715 14.5283 58.9475 14.3979 59.4113 14.0463C59.8734 13.6948 60.1705 13.1617 60.7647 12.0954L61.306 11.125Z" fill="#E3E3E3"/>
<path d="M105.306 11.125C107.397 7.37507 108.442 5.50012 110.005 5.50012C111.568 5.50012 112.613 7.37507 114.704 11.125L115.245 12.0954C115.839 13.1617 116.137 13.6948 116.599 14.0463C117.061 14.3979 117.638 14.5283 118.794 14.789L119.843 15.0267C123.904 15.946 125.932 16.4049 126.416 17.958C126.898 19.5094 125.515 21.1285 122.747 24.3651L122.03 25.2019C121.245 26.1212 120.85 26.5817 120.674 27.1495C120.497 27.7189 120.557 28.3329 120.675 29.5592L120.784 30.6766C121.202 34.9959 121.411 37.1547 120.147 38.1137C118.883 39.0742 116.982 38.1978 113.182 36.4483L112.197 35.9961C111.117 35.4976 110.578 35.2501 110.005 35.2501C109.432 35.2501 108.893 35.4976 107.813 35.9961L106.829 36.4483C103.028 38.1978 101.127 39.0726 99.8644 38.1153C98.5985 37.1547 98.8081 34.9959 99.2257 30.6766L99.3346 29.5609C99.4534 28.3329 99.5129 27.7189 99.3346 27.1511C99.1596 26.5817 98.7652 26.1212 97.9796 25.2036L97.2632 24.3651C94.4954 21.1302 93.1123 19.5111 93.5942 17.958C94.0778 16.4049 96.1079 15.9444 100.168 15.0267L101.218 14.789C102.371 14.5283 102.948 14.3979 103.411 14.0463C103.873 13.6948 104.171 13.1617 104.765 12.0954L105.306 11.125Z" fill="#E3E3E3"/>
<path d="M149.306 11.125C151.397 7.37507 152.442 5.50012 154.005 5.50012C155.568 5.50012 156.613 7.37507 158.704 11.125L159.245 12.0954C159.84 13.1617 160.137 13.6948 160.599 14.0463C161.061 14.3979 161.639 14.5283 162.794 14.789L163.844 15.0267C167.904 15.946 169.932 16.4049 170.416 17.958C170.898 19.5094 169.515 21.1285 166.747 24.3651L166.031 25.2019C165.245 26.1212 164.851 26.5817 164.674 27.1495C164.497 27.7189 164.557 28.3329 164.676 29.5592L164.785 30.6766C165.202 34.9959 165.412 37.1547 164.147 38.1137C162.883 39.0742 160.982 38.1978 157.182 36.4483L156.197 35.9961C155.118 35.4976 154.578 35.2501 154.005 35.2501C153.432 35.2501 152.893 35.4976 151.813 35.9961L150.83 36.4483C147.029 38.1978 145.127 39.0726 143.865 38.1153C142.599 37.1547 142.808 34.9959 143.226 30.6766L143.335 29.5609C143.454 28.3329 143.513 27.7189 143.335 27.1511C143.16 26.5817 142.765 26.1212 141.98 25.2036L141.263 24.3651C138.496 21.1302 137.113 19.5111 137.594 17.958C138.078 16.4049 140.108 15.9444 144.168 15.0267L145.218 14.789C146.372 14.5283 146.948 14.3979 147.412 14.0463C147.874 13.6948 148.171 13.1617 148.765 12.0954L149.306 11.125Z" fill="#E3E3E3"/>
<path d="M193.306 11.125C195.397 7.37507 196.442 5.50012 198.005 5.50012C199.568 5.50012 200.613 7.37507 202.704 11.125L203.245 12.0954C203.84 13.1617 204.137 13.6948 204.599 14.0463C205.061 14.3979 205.639 14.5283 206.794 14.789L207.844 15.0267C211.904 15.946 213.932 16.4049 214.416 17.958C214.898 19.5094 213.515 21.1285 210.747 24.3651L210.031 25.2019C209.245 26.1212 208.851 26.5817 208.674 27.1495C208.497 27.7189 208.557 28.3329 208.676 29.5592L208.785 30.6766C209.202 34.9959 209.412 37.1547 208.147 38.1137C206.883 39.0742 204.982 38.1978 201.182 36.4483L200.197 35.9961C199.118 35.4976 198.578 35.2501 198.005 35.2501C197.432 35.2501 196.893 35.4976 195.813 35.9961L194.83 36.4483C191.029 38.1978 189.127 39.0726 187.865 38.1153C186.599 37.1547 186.808 34.9959 187.226 30.6766L187.335 29.5609C187.454 28.3329 187.513 27.7189 187.335 27.1511C187.16 26.5817 186.765 26.1212 185.98 25.2036L185.263 24.3651C182.496 21.1302 181.113 19.5111 181.594 17.958C182.078 16.4049 184.108 15.9444 188.168 15.0267L189.218 14.789C190.372 14.5283 190.948 14.3979 191.412 14.0463C191.874 13.6948 192.171 13.1617 192.765 12.0954L193.306 11.125Z" fill="#E3E3E3"/>
</svg>
