<svg width="44" height="44" viewBox="0 0 44 44" fill="none" xmlns="http://www.w3.org/2000/svg">
<path d="M17.3063 11.1248C19.3974 7.37492 20.4422 5.49998 22.0052 5.49998C23.5682 5.49998 24.613 7.37492 26.7041 11.1248L27.2455 12.0953C27.8397 13.1615 28.1368 13.6946 28.5989 14.0462C29.061 14.3977 29.6387 14.5281 30.794 14.7889L31.8437 15.0266C35.9039 15.9459 37.9324 16.4047 38.416 17.9578C38.8979 19.5093 37.5148 21.1284 34.7469 24.365L34.0306 25.2018C33.245 26.1211 32.8505 26.5816 32.6739 27.1494C32.4973 27.7188 32.5567 28.3327 32.6756 29.5591L32.7845 30.6764C33.2021 34.9957 33.4117 37.1546 32.1474 38.1135C30.8832 39.0741 28.9818 38.1977 25.1824 36.4482L24.1971 35.9959C23.1176 35.4975 22.5779 35.2499 22.0052 35.2499C21.4325 35.2499 20.8928 35.4975 19.8134 35.9959L18.8297 36.4482C15.0286 38.1977 13.1273 39.0724 11.8646 38.1152C10.5987 37.1546 10.8083 34.9957 11.2259 30.6764L11.3348 29.5607C11.4537 28.3327 11.5131 27.7188 11.3348 27.151C11.1599 26.5816 10.7654 26.1211 9.9798 25.2034L9.26349 24.365C6.49563 21.13 5.11252 19.5109 5.59447 17.9578C6.07806 16.4047 8.10815 15.9442 12.1683 15.0266L13.218 14.7889C14.3717 14.5281 14.9477 14.3977 15.4115 14.0462C15.8737 13.6946 16.1708 13.1615 16.7649 12.0953L17.3063 11.1248Z" fill="#F16060"/>
</svg>
