<svg width="16" height="16" viewBox="0 0 16 16" fill="none" xmlns="http://www.w3.org/2000/svg">
<path d="M6.10218 3.60532C6.94685 2.09065 7.36885 1.33331 8.00019 1.33331C8.63152 1.33331 9.05352 2.09065 9.89819 3.60532L10.1169 3.99732C10.3569 4.42799 10.4769 4.64332 10.6635 4.78532C10.8502 4.92732 11.0835 4.97999 11.5502 5.08532L11.9742 5.18132C13.6142 5.55266 14.4335 5.73799 14.6289 6.36533C14.8235 6.992 14.2649 7.646 13.1469 8.95334L12.8575 9.29134C12.5402 9.66267 12.3809 9.84867 12.3095 10.078C12.2382 10.308 12.2622 10.556 12.3102 11.0513L12.3542 11.5027C12.5229 13.2473 12.6075 14.1194 12.0969 14.5067C11.5862 14.8947 10.8182 14.5407 9.28352 13.834L8.88552 13.6514C8.44952 13.45 8.23152 13.35 8.00019 13.35C7.76885 13.35 7.55085 13.45 7.11485 13.6514L6.71752 13.834C5.18218 14.5407 4.41418 14.894 3.90417 14.5074C3.39284 14.1194 3.47751 13.2473 3.64617 11.5027L3.69017 11.052C3.73817 10.556 3.76217 10.308 3.69017 10.0787C3.61951 9.84867 3.46017 9.66267 3.14284 9.292L2.8535 8.95334C1.7355 7.64667 1.17683 6.99266 1.3715 6.36533C1.56683 5.73799 2.38684 5.55199 4.02684 5.18132L4.45084 5.08532C4.91684 4.97999 5.14951 4.92732 5.33685 4.78532C5.52351 4.64332 5.64351 4.42799 5.88351 3.99732L6.10218 3.60532Z" fill="#F16060"/>
</svg>
