<svg width="220" height="44" viewBox="0 0 220 44" fill="none" xmlns="http://www.w3.org/2000/svg">
<path d="M17.306 11.1248C19.3972 7.37495 20.442 5.5 22.005 5.5C23.568 5.5 24.6127 7.37495 26.7039 11.1248L27.2452 12.0953C27.8394 13.1615 28.1365 13.6946 28.5986 14.0462C29.0608 14.3978 29.6384 14.5281 30.7938 14.7889L31.8435 15.0266C35.9037 15.9459 37.9321 16.4047 38.4157 17.9578C38.8977 19.5093 37.5145 21.1284 34.7467 24.365L34.0304 25.2018C33.2448 26.1211 32.8503 26.5816 32.6737 27.1494C32.4971 27.7188 32.5565 28.3328 32.6753 29.5591L32.7843 30.6765C33.2018 34.9958 33.4115 37.1546 32.1472 38.1135C30.8829 39.0741 28.9816 38.1977 25.1821 36.4482L24.1968 35.996C23.1174 35.4975 22.5777 35.2499 22.005 35.2499C21.4322 35.2499 20.8925 35.4975 19.8131 35.996L18.8294 36.4482C15.0284 38.1977 13.127 39.0725 11.8644 38.1152C10.5985 37.1546 10.8081 34.9958 11.2257 30.6765L11.3346 29.5607C11.4534 28.3328 11.5129 27.7188 11.3346 27.151C11.1596 26.5816 10.7652 26.1211 9.97955 25.2035L9.26324 24.365C6.49539 21.1301 5.11228 19.5109 5.59422 17.9578C6.07781 16.4047 8.10791 15.9443 12.1681 15.0266L13.2178 14.7889C14.3715 14.5281 14.9475 14.3978 15.4113 14.0462C15.8734 13.6946 16.1705 13.1615 16.7647 12.0953L17.306 11.1248Z" fill="#F16060"/>
<path d="M61.306 11.1248C63.3972 7.37495 64.442 5.5 66.005 5.5C67.568 5.5 68.6127 7.37495 70.7039 11.1248L71.2452 12.0953C71.8394 13.1615 72.1365 13.6946 72.5986 14.0462C73.0608 14.3978 73.6384 14.5281 74.7938 14.7889L75.8435 15.0266C79.9037 15.9459 81.9321 16.4047 82.4157 17.9578C82.8977 19.5093 81.5145 21.1284 78.7467 24.365L78.0304 25.2018C77.2448 26.1211 76.8503 26.5816 76.6737 27.1494C76.4971 27.7188 76.5565 28.3328 76.6753 29.5591L76.7843 30.6765C77.2018 34.9958 77.4115 37.1546 76.1472 38.1135C74.8829 39.0741 72.9816 38.1977 69.1821 36.4482L68.1968 35.996C67.1174 35.4975 66.5777 35.2499 66.005 35.2499C65.4322 35.2499 64.8925 35.4975 63.8131 35.996L62.8294 36.4482C59.0284 38.1977 57.127 39.0725 55.8644 38.1152C54.5985 37.1546 54.8081 34.9958 55.2257 30.6765L55.3346 29.5607C55.4534 28.3328 55.5129 27.7188 55.3346 27.151C55.1596 26.5816 54.7652 26.1211 53.9796 25.2035L53.2632 24.365C50.4954 21.1301 49.1123 19.5109 49.5942 17.9578C50.0778 16.4047 52.1079 15.9443 56.1681 15.0266L57.2178 14.7889C58.3715 14.5281 58.9475 14.3978 59.4113 14.0462C59.8734 13.6946 60.1705 13.1615 60.7647 12.0953L61.306 11.1248Z" fill="#F16060"/>
<path d="M105.306 11.1248C107.397 7.37495 108.442 5.5 110.005 5.5C111.568 5.5 112.613 7.37495 114.704 11.1248L115.245 12.0953C115.839 13.1615 116.137 13.6946 116.599 14.0462C117.061 14.3978 117.638 14.5281 118.794 14.7889L119.843 15.0266C123.904 15.9459 125.932 16.4047 126.416 17.9578C126.898 19.5093 125.515 21.1284 122.747 24.365L122.03 25.2018C121.245 26.1211 120.85 26.5816 120.674 27.1494C120.497 27.7188 120.557 28.3328 120.675 29.5591L120.784 30.6765C121.202 34.9958 121.411 37.1546 120.147 38.1135C118.883 39.0741 116.982 38.1977 113.182 36.4482L112.197 35.996C111.117 35.4975 110.578 35.2499 110.005 35.2499C109.432 35.2499 108.893 35.4975 107.813 35.996L106.829 36.4482C103.028 38.1977 101.127 39.0725 99.8644 38.1152C98.5985 37.1546 98.8081 34.9958 99.2257 30.6765L99.3346 29.5607C99.4534 28.3328 99.5129 27.7188 99.3346 27.151C99.1596 26.5816 98.7652 26.1211 97.9796 25.2035L97.2632 24.365C94.4954 21.1301 93.1123 19.5109 93.5942 17.9578C94.0778 16.4047 96.1079 15.9443 100.168 15.0266L101.218 14.7889C102.371 14.5281 102.948 14.3978 103.411 14.0462C103.873 13.6946 104.171 13.1615 104.765 12.0953L105.306 11.1248Z" fill="#F16060"/>
<path d="M149.306 11.1248C151.397 7.37495 152.442 5.5 154.005 5.5C155.568 5.5 156.613 7.37495 158.704 11.1248L159.245 12.0953C159.839 13.1615 160.137 13.6946 160.599 14.0462C161.061 14.3978 161.638 14.5281 162.794 14.7889L163.843 15.0266C167.904 15.9459 169.932 16.4047 170.416 17.9578C170.898 19.5093 169.515 21.1284 166.747 24.365L166.03 25.2018C165.245 26.1211 164.85 26.5816 164.674 27.1494C164.497 27.7188 164.557 28.3328 164.675 29.5591L164.784 30.6765C165.202 34.9958 165.411 37.1546 164.147 38.1135C162.883 39.0741 160.982 38.1977 157.182 36.4482L156.197 35.996C155.117 35.4975 154.578 35.2499 154.005 35.2499C153.432 35.2499 152.893 35.4975 151.813 35.996L150.829 36.4482C147.028 38.1977 145.127 39.0725 143.864 38.1152C142.598 37.1546 142.808 34.9958 143.226 30.6765L143.335 29.5607C143.453 28.3328 143.513 27.7188 143.335 27.151C143.16 26.5816 142.765 26.1211 141.98 25.2035L141.263 24.365C138.495 21.1301 137.112 19.5109 137.594 17.9578C138.078 16.4047 140.108 15.9443 144.168 15.0266L145.218 14.7889C146.371 14.5281 146.948 14.3978 147.411 14.0462C147.873 13.6946 148.171 13.1615 148.765 12.0953L149.306 11.1248Z" fill="#F16060"/>
<path d="M193.306 11.1248C195.397 7.37495 196.442 5.5 198.005 5.5C199.568 5.5 200.613 7.37495 202.704 11.1248L203.245 12.0953C203.839 13.1615 204.137 13.6946 204.599 14.0462C205.061 14.3978 205.638 14.5281 206.794 14.7889L207.843 15.0266C211.904 15.9459 213.932 16.4047 214.416 17.9578C214.898 19.5093 213.515 21.1284 210.747 24.365L210.03 25.2018C209.245 26.1211 208.85 26.5816 208.674 27.1494C208.497 27.7188 208.557 28.3328 208.675 29.5591L208.784 30.6765C209.202 34.9958 209.411 37.1546 208.147 38.1135C206.883 39.0741 204.982 38.1977 201.182 36.4482L200.197 35.996C199.117 35.4975 198.578 35.2499 198.005 35.2499C197.432 35.2499 196.893 35.4975 195.813 35.996L194.829 36.4482C191.028 38.1977 189.127 39.0725 187.864 38.1152C186.598 37.1546 186.808 34.9958 187.226 30.6765L187.335 29.5607C187.453 28.3328 187.513 27.7188 187.335 27.151C187.16 26.5816 186.765 26.1211 185.98 25.2035L185.263 24.365C182.495 21.1301 181.112 19.5109 181.594 17.9578C182.078 16.4047 184.108 15.9443 188.168 15.0266L189.218 14.7889C190.371 14.5281 190.948 14.3978 191.411 14.0462C191.873 13.6946 192.171 13.1615 192.765 12.0953L193.306 11.1248Z" fill="#F16060"/>
</svg>
