<svg width="40" height="40" viewBox="0 0 40 40" fill="none" xmlns="http://www.w3.org/2000/svg">
<path d="M25.5984 23.4778H24.4863L24.0922 23.0979C24.9719 22.0765 25.6149 20.8733 25.9751 19.5745C26.3352 18.2758 26.4037 16.9135 26.1756 15.5851C25.514 11.674 22.2481 8.55071 18.3065 8.07237C16.9207 7.89716 15.5133 8.0411 14.1918 8.49315C12.8703 8.94521 11.6697 9.69341 10.6821 10.6805C9.6944 11.6676 8.94577 12.8674 8.49344 14.1881C8.04112 15.5089 7.8971 16.9155 8.07241 18.3004C8.55103 22.2397 11.6762 25.5037 15.5896 26.1649C16.9187 26.3929 18.2818 26.3245 19.5813 25.9645C20.8809 25.6046 22.0847 24.962 23.1068 24.0827L23.4869 24.4767V25.5881L29.4696 31.5674C30.0468 32.1442 30.99 32.1442 31.5671 31.5674C32.1443 30.9906 32.1443 30.0479 31.5671 29.4711L25.5984 23.4778ZM17.1522 23.4778C13.647 23.4778 10.8175 20.6499 10.8175 17.1468C10.8175 13.6436 13.647 10.8158 17.1522 10.8158C20.6574 10.8158 23.4869 13.6436 23.4869 17.1468C23.4869 20.6499 20.6574 23.4778 17.1522 23.4778Z" fill="#AFA8A8"/>
</svg>
