<svg width="44" height="44" viewBox="0 0 44 44" fill="none" xmlns="http://www.w3.org/2000/svg">
    <path d="M17.3073 11.1248C19.3984 7.37495 20.4432 5.5 22.0062 5.5C23.5692 5.5 24.614 7.37495 26.7051 11.1248L27.2465 12.0953C27.8406 13.1615 28.1377 13.6946 28.5999 14.0462C29.062 14.3978 29.6397 14.5281 30.795 14.7889L31.8447 15.0266C35.9049 15.9459 37.9333 16.4047 38.4169 17.9578C38.8989 19.5093 37.5158 21.1284 34.7479 24.365L34.0316 25.2018C33.246 26.1211 32.8515 26.5816 32.6749 27.1494C32.4983 27.7188 32.5577 28.3328 32.6766 29.5591L32.7855 30.6765C33.2031 34.9958 33.4127 37.1546 32.1484 38.1135C30.8841 39.0741 28.9828 38.1977 25.1834 36.4482L24.198 35.996C23.1186 35.4975 22.5789 35.2499 22.0062 35.2499C21.4335 35.2499 20.8938 35.4975 19.8143 35.996L18.8307 36.4482C15.0296 38.1977 13.1282 39.0725 11.8656 38.1152C10.5997 37.1546 10.8093 34.9958 11.2269 30.6765L11.3358 29.5607C11.4547 28.3328 11.5141 27.7188 11.3358 27.151C11.1609 26.5816 10.7664 26.1211 9.98077 25.2035L9.26446 24.365C6.49661 21.1301 5.1135 19.5109 5.59544 17.9578C6.07903 16.4047 8.10913 15.9443 12.1693 15.0266L13.219 14.7889C14.3727 14.5281 14.9487 14.3978 15.4125 14.0462C15.8746 13.6946 16.1717 13.1615 16.7659 12.0953L17.3073 11.1248Z" fill="#E3E3E3"/>
</svg>
