<svg width="266" height="91" viewBox="0 0 266 91" fill="none" xmlns="http://www.w3.org/2000/svg">
<g clip-path="url(#clip0_103_6841)">
<path d="M123.638 39.0191C125.831 40.6144 127.227 42.7415 127.892 45.5998C128.556 48.3916 128.357 51.5823 127.293 55.1717C126.23 58.7612 124.502 61.9519 122.242 64.7437C119.915 67.5355 117.19 69.7291 114.066 71.3244C110.941 72.9197 107.684 73.6509 104.294 73.6509C100.904 73.6509 98.1788 72.8533 96.0517 71.3244C93.8581 69.7291 92.4622 67.602 91.864 64.7437C91.1992 61.9519 91.3987 58.7612 92.4622 55.1717C93.5258 51.5823 95.1876 48.3916 97.5805 45.5998C99.9071 42.808 102.632 40.6144 105.69 39.0191C108.814 37.4238 112.005 36.6926 115.395 36.6926C118.785 36.6926 121.577 37.4902 123.77 39.0191H123.638ZM113.135 69.0644C115.794 67.7349 118.054 65.8072 120.048 63.4143C122.042 61.0213 123.438 58.2295 124.369 55.1717C125.299 52.114 125.499 49.3222 124.967 46.9292C124.435 44.5362 123.239 42.6086 121.444 41.2791C119.649 39.9497 117.323 39.2185 114.464 39.2185C111.606 39.2185 108.947 39.8832 106.355 41.2791C103.762 42.675 101.502 44.5362 99.5747 46.9292C97.647 49.3222 96.1846 52.114 95.254 55.1717C94.3234 58.2295 94.124 61.0213 94.6558 63.4143C95.1876 65.8072 96.3176 67.7349 98.0458 69.0644C99.8406 70.3938 102.101 71.125 104.959 71.125C107.817 71.125 110.543 70.4603 113.135 69.0644Z" fill="black"/>
<path d="M139.391 73.518H136.533L132.013 36.7591H135.137L138.992 70.1944L162.125 36.7591H165.249L139.458 73.518H139.391Z" fill="black"/>
<path d="M176.549 36.6927L165.581 73.4516H162.723L173.691 36.6927H176.549ZM181.335 21.9359C181.668 22.3348 181.668 22.933 181.468 23.6642C181.269 24.3289 180.87 24.9272 180.338 25.3925C179.806 25.8578 179.142 26.0572 178.411 26.0572C177.746 26.0572 177.214 25.8578 176.882 25.3925C176.549 24.9272 176.483 24.3954 176.682 23.6642C176.882 22.933 177.28 22.3348 177.879 21.9359C178.477 21.5371 179.075 21.2712 179.806 21.2712C180.538 21.2712 181.069 21.4706 181.335 21.9359Z" fill="black"/>
<path d="M57.3651 16.618L59.3592 56.3682H59.4922L85.3497 16.618H105.291L104.959 17.748H97.647L81.3614 72.3214H88.6733L88.341 73.4515H62.151L62.4834 72.3214H69.7288L86.0809 17.748H85.948L49.7208 73.4515H48.4578L45.3337 17.748H45.2007L28.9151 72.3214H36.227L35.8947 73.4515H19.9414L20.2738 72.3214H27.5857L43.8713 17.748H36.5594L36.8917 16.618H57.3651Z" fill="black"/>
<path d="M212.976 37.2244L210.384 45.9987H209.719C209.719 45.4005 209.719 44.6693 209.519 43.8051C209.32 42.941 209.054 42.0104 208.589 41.1463C208.124 40.2821 207.392 39.5509 206.395 38.9527C205.398 38.3544 204.069 38.0221 202.407 38.0221H194.297L189.578 53.8424H192.436C193.699 53.8424 194.829 53.643 195.826 53.3106C196.823 52.9783 197.687 52.4465 198.419 51.7818C199.216 51.1171 199.881 50.3194 200.546 49.3888C201.21 48.4582 201.809 47.3946 202.407 46.2646H203.072L198.352 62.2179H197.687C197.687 61.2208 197.687 60.2902 197.687 59.3596C197.687 58.429 197.422 57.6313 197.089 56.9001C196.757 56.2354 196.225 55.6371 195.56 55.2383C194.896 54.8395 193.965 54.6401 192.769 54.6401H189.312L183.795 73.1192H192.17C193.766 73.1192 195.228 72.8534 196.624 72.3216C198.02 71.7898 199.416 71.0586 200.679 70.128C201.942 69.1974 203.072 68.0674 204.135 66.8044C205.199 65.5415 206.063 64.1455 206.861 62.6832H207.525L204.202 73.9169H171.498L171.697 73.1857H176.416L186.853 38.155H182.133L182.332 37.4238H212.976V37.2244Z" fill="black"/>
<path d="M219.025 37.9557L219.224 37.2245H226.935C228.397 37.2245 229.793 37.2245 231.189 37.1581C232.585 37.1581 234.047 37.0916 235.443 37.0916C236.773 37.0916 238.169 37.2245 239.565 37.4904C240.961 37.7563 242.157 38.2216 243.221 38.8863C244.218 39.551 245.015 40.4152 245.481 41.5452C245.946 42.6752 245.946 44.0711 245.481 45.7994C245.082 47.1953 244.417 48.3253 243.486 49.3224C242.622 50.3195 241.559 51.1172 240.429 51.7154C239.299 52.3136 238.036 52.7789 236.773 53.1113C235.51 53.4437 234.247 53.6431 233.05 53.776V54.0419C234.513 54.3743 235.975 54.6402 237.172 54.9725C238.368 55.3049 239.365 55.7702 240.163 56.3684C240.961 56.9667 241.426 57.8308 241.692 58.9608C241.958 60.0244 241.825 61.4868 241.426 63.348C240.961 65.4751 240.562 67.2033 240.296 68.5328C240.03 69.7958 239.897 70.8593 239.831 71.524C239.831 72.2552 239.897 72.7205 240.163 72.9864C240.429 73.2523 240.828 73.3188 241.492 73.3188C242.157 73.3188 242.822 73.1193 243.354 72.7205C243.885 72.3217 244.417 71.9893 244.882 71.5905L245.281 72.0558C244.816 72.3882 244.417 72.7205 244.018 72.9864C243.619 73.2523 243.154 73.5182 242.689 73.7176C242.224 73.917 241.625 74.1164 240.961 74.1829C240.296 74.3158 239.498 74.3823 238.568 74.3823C236.706 74.3823 235.31 74.1164 234.446 73.5182C233.582 72.9199 232.984 72.1887 232.718 71.2581C232.452 70.394 232.452 69.3969 232.652 68.3334C232.851 67.2698 233.05 66.3392 233.316 65.4086C233.649 64.0127 233.981 62.6833 234.247 61.3538C234.513 60.0244 234.579 58.8944 234.446 57.8308C234.313 56.8337 233.915 55.9696 233.183 55.3714C232.452 54.7731 231.322 54.4407 229.727 54.4407H226.337L220.82 72.9199H225.539L225.34 73.6511H208.456L208.655 72.9199H213.375L223.811 37.8892H219.091L219.025 37.9557ZM228.53 53.776C230.059 53.776 231.322 53.5766 232.319 53.1778C233.316 52.7789 234.18 52.1807 234.845 51.516C235.51 50.8513 236.042 50.0536 236.374 49.123C236.773 48.2589 237.105 47.3283 237.371 46.3976C237.836 44.8688 238.102 43.6058 238.235 42.5423C238.368 41.4787 238.235 40.6146 237.969 39.8834C237.703 39.2187 237.172 38.6869 236.44 38.3545C235.709 38.0222 234.712 37.8228 233.383 37.8228C232.984 37.8228 232.652 37.8228 232.253 37.8228C231.854 37.8228 231.455 37.8892 231.123 37.9557L226.403 53.776H228.53Z" fill="black"/>
</g>
<defs>
<clipPath id="clip0_103_6841">
<rect width="225.871" height="57.7641" fill="white" transform="translate(19.9414 16.618)"/>
</clipPath>
</defs>
</svg>
