<svg width="132" height="44" viewBox="0 0 132 44" fill="none" xmlns="http://www.w3.org/2000/svg">
<g clip-path="url(#clip0_103_6827)">
<path d="M61.3802 18.7595C62.4769 19.5572 63.1749 20.6207 63.5073 22.0499C63.8396 23.4458 63.7399 25.0411 63.2081 26.8358C62.6764 28.6306 61.8122 30.2259 60.6822 31.6218C59.5189 33.0177 58.1563 34.1145 56.5942 34.9122C55.0321 35.7098 53.4035 36.0754 51.7085 36.0754C50.0135 36.0754 48.6508 35.6766 47.5872 34.9122C46.4905 34.1145 45.7925 33.051 45.4934 31.6218C45.161 30.2259 45.2607 28.6306 45.7925 26.8358C46.3243 25.0411 47.1552 23.4458 48.3517 22.0499C49.5149 20.654 50.8776 19.5572 52.4065 18.7595C53.9685 17.9618 55.5639 17.5963 57.2589 17.5963C58.9539 17.5963 60.3498 17.9951 61.4466 18.7595H61.3802ZM56.1289 33.7822C57.4583 33.1174 58.5883 32.1536 59.5854 30.9571C60.5825 29.7606 61.2805 28.3647 61.7458 26.8358C62.2111 25.307 62.3108 23.9111 62.0449 22.7146C61.779 21.5181 61.1807 20.5543 60.2834 19.8895C59.386 19.2248 58.2227 18.8592 56.7936 18.8592C55.3645 18.8592 54.035 19.1916 52.7388 19.8895C51.4426 20.5875 50.3126 21.5181 49.3488 22.7146C48.3849 23.9111 47.6537 25.307 47.1884 26.8358C46.7231 28.3647 46.6234 29.7606 46.8893 30.9571C47.1552 32.1536 47.7202 33.1174 48.5843 33.7822C49.4817 34.4469 50.6117 34.8125 52.0409 34.8125C53.47 34.8125 54.8327 34.4801 56.1289 33.7822Z" fill="white"/>
<path d="M69.2571 36.009H67.8279L65.5679 17.6295H67.13L69.0576 34.3472L80.6237 17.6295H82.1858L69.2903 36.009H69.2571Z" fill="white"/>
<path d="M87.8359 17.5964L82.352 35.9758H80.9229L86.4068 17.5964H87.8359ZM90.2289 10.218C90.3951 10.4174 90.3951 10.7165 90.2954 11.0821C90.1957 11.4145 89.9963 11.7136 89.7304 11.9462C89.4645 12.1789 89.1321 12.2786 88.7665 12.2786C88.4342 12.2786 88.1683 12.1789 88.0021 11.9462C87.8359 11.7136 87.8027 11.4477 87.9024 11.0821C88.0021 10.7165 88.2015 10.4174 88.5006 10.218C88.7998 10.0186 89.0989 9.88562 89.4645 9.88562C89.8301 9.88562 90.096 9.98533 90.2289 10.218Z" fill="white"/>
<path d="M28.2439 7.55896L29.241 27.4341H29.3075L42.2363 7.55896H52.207L52.0409 8.12397H48.3849L40.2421 35.4107H43.8981L43.7319 35.9757H30.6369L30.8031 35.4107H34.4258L42.6019 8.12397H42.5354L24.4218 35.9757H23.7903L22.2282 8.12397H22.1618L14.019 35.4107H17.6749L17.5087 35.9757H9.5321L9.69828 35.4107H13.3542L21.497 8.12397H17.8411L18.0073 7.55896H28.2439Z" fill="white"/>
<path d="M106.05 17.8622L104.753 22.2494H104.421C104.421 21.9503 104.421 21.5847 104.321 21.1526C104.222 20.7205 104.089 20.2552 103.856 19.8232C103.623 19.3911 103.258 19.0255 102.759 18.7264C102.261 18.4273 101.596 18.2611 100.765 18.2611H96.7104L94.3506 26.1712H95.7798C96.4112 26.1712 96.9762 26.0715 97.4748 25.9053C97.9733 25.7392 98.4054 25.4733 98.771 25.1409C99.1698 24.8086 99.5022 24.4097 99.8345 23.9444C100.167 23.4791 100.466 22.9473 100.765 22.3823H101.097L98.7377 30.359H98.4054C98.4054 29.8604 98.4054 29.3951 98.4054 28.9298C98.4054 28.4645 98.2724 28.0657 98.1063 27.7001C97.9401 27.3677 97.6742 27.0686 97.3418 26.8692C97.0095 26.6698 96.5442 26.5701 95.9459 26.5701H94.2177L91.4591 35.8097H95.6468C96.4445 35.8097 97.1757 35.6767 97.8736 35.4108C98.5716 35.1449 99.2695 34.7793 99.901 34.314C100.532 33.8487 101.097 33.2837 101.629 32.6522C102.161 32.0208 102.593 31.3228 102.992 30.5916H103.324L101.663 36.2085H85.3104L85.4101 35.8429H87.7699L92.9879 18.3275H90.6282L90.7279 17.962H106.05V17.8622Z" fill="white"/>
<path d="M109.074 18.228L109.174 17.8624H113.029C113.761 17.8624 114.459 17.8624 115.156 17.8291C115.854 17.8291 116.586 17.7959 117.284 17.7959C117.948 17.7959 118.646 17.8624 119.344 17.9953C120.042 18.1283 120.64 18.3609 121.172 18.6933C121.671 19.0256 122.07 19.4577 122.302 20.0227C122.535 20.5877 122.535 21.2857 122.302 22.1498C122.103 22.8478 121.77 23.4128 121.305 23.9113C120.873 24.4099 120.341 24.8087 119.776 25.1078C119.211 25.4069 118.58 25.6396 117.948 25.8058C117.317 25.9719 116.685 26.0716 116.087 26.1381V26.2711C116.818 26.4372 117.549 26.5702 118.148 26.7364C118.746 26.9025 119.245 27.1352 119.643 27.4343C120.042 27.7334 120.275 28.1655 120.408 28.7305C120.541 29.2623 120.474 29.9935 120.275 30.9241C120.042 31.9876 119.843 32.8518 119.71 33.5165C119.577 34.148 119.51 34.6798 119.477 35.0121C119.477 35.3777 119.51 35.6104 119.643 35.7433C119.776 35.8763 119.976 35.9095 120.308 35.9095C120.64 35.9095 120.973 35.8098 121.239 35.6104C121.505 35.4109 121.77 35.2448 122.003 35.0454L122.203 35.278C121.97 35.4442 121.77 35.6104 121.571 35.7433C121.372 35.8763 121.139 36.0092 120.906 36.1089C120.674 36.2086 120.375 36.3083 120.042 36.3416C119.71 36.408 119.311 36.4413 118.846 36.4413C117.915 36.4413 117.217 36.3083 116.785 36.0092C116.353 35.7101 116.054 35.3445 115.921 34.8792C115.788 34.4471 115.788 33.9486 115.888 33.4168C115.987 32.885 116.087 32.4197 116.22 31.9544C116.386 31.2565 116.552 30.5917 116.685 29.927C116.818 29.2623 116.852 28.6973 116.785 28.1655C116.719 27.667 116.519 27.2349 116.154 26.9358C115.788 26.6367 115.223 26.4705 114.425 26.4705H112.73L109.972 35.7101H112.331L112.232 36.0757H103.79L103.889 35.7101H106.249L111.467 18.1947H109.108L109.074 18.228ZM113.827 26.1381C114.591 26.1381 115.223 26.0384 115.721 25.839C116.22 25.6396 116.652 25.3405 116.984 25.0081C117.317 24.6757 117.583 24.2769 117.749 23.8116C117.948 23.3795 118.114 22.9142 118.247 22.4489C118.48 21.6845 118.613 21.053 118.679 20.5212C118.746 19.9895 118.679 19.5574 118.547 19.1918C118.414 18.8594 118.148 18.5936 117.782 18.4274C117.417 18.2612 116.918 18.1615 116.253 18.1615C116.054 18.1615 115.888 18.1615 115.688 18.1615C115.489 18.1615 115.289 18.1947 115.123 18.228L112.763 26.1381H113.827Z" fill="white"/>
</g>
<defs>
<clipPath id="clip0_103_6827">
<rect width="112.936" height="28.882" fill="white" transform="translate(9.5321 7.55896)"/>
</clipPath>
</defs>
</svg>
