<svg width="132" height="44" viewBox="0 0 132 44" fill="none" xmlns="http://www.w3.org/2000/svg">
<g clip-path="url(#clip0_103_7250)">
<path d="M61.3802 18.7595C62.477 19.5572 63.175 20.6207 63.5073 22.0499C63.8397 23.4458 63.74 25.0411 63.2082 26.8358C62.6764 28.6306 61.8123 30.2259 60.6823 31.6218C59.519 33.0177 58.1563 34.1145 56.5942 34.9122C55.0322 35.7098 53.4036 36.0754 51.7086 36.0754C50.0135 36.0754 48.6509 35.6766 47.5873 34.9122C46.4905 34.1145 45.7926 33.051 45.4934 31.6218C45.1611 30.2259 45.2608 28.6306 45.7926 26.8358C46.3243 25.0411 47.1552 23.4458 48.3517 22.0499C49.515 20.654 50.8777 19.5572 52.4065 18.7595C53.9686 17.9618 55.5639 17.5963 57.259 17.5963C58.954 17.5963 60.3499 17.9951 61.4467 18.7595H61.3802ZM56.1289 33.7822C57.4584 33.1174 58.5884 32.1536 59.5855 30.9571C60.5826 29.7606 61.2805 28.3647 61.7458 26.8358C62.2111 25.307 62.3108 23.9111 62.0449 22.7146C61.7791 21.5181 61.1808 20.5543 60.2834 19.8895C59.3861 19.2248 58.2228 18.8592 56.7937 18.8592C55.3645 18.8592 54.0351 19.1916 52.7389 19.8895C51.4427 20.5875 50.3127 21.5181 49.3488 22.7146C48.385 23.9111 47.6538 25.307 47.1885 26.8358C46.7232 28.3647 46.6235 29.7606 46.8894 30.9571C47.1552 32.1536 47.7203 33.1174 48.5844 33.7822C49.4818 34.4469 50.6118 34.8125 52.0409 34.8125C53.4701 34.8125 54.8327 34.4801 56.1289 33.7822Z" fill="black"/>
<path d="M69.2571 36.009H67.828L65.568 17.6295H67.13L69.0577 34.3472L80.6238 17.6295H82.1859L69.2904 36.009H69.2571Z" fill="black"/>
<path d="M87.836 17.5963L82.3521 35.9758H80.923L86.4069 17.5963H87.836ZM90.229 10.2179C90.3952 10.4174 90.3952 10.7165 90.2955 11.0821C90.1958 11.4144 89.9964 11.7136 89.7305 11.9462C89.4646 12.1789 89.1323 12.2786 88.7667 12.2786C88.4343 12.2786 88.1684 12.1789 88.0022 11.9462C87.8361 11.7136 87.8028 11.4477 87.9025 11.0821C88.0022 10.7165 88.2016 10.4174 88.5008 10.2179C88.7999 10.0185 89.099 9.88559 89.4646 9.88559C89.8302 9.88559 90.0961 9.9853 90.229 10.2179Z" fill="black"/>
<path d="M28.244 7.55899L29.2411 27.4341H29.3075L42.2363 7.55899H52.2071L52.0409 8.124H48.385L40.2422 35.4107H43.8981L43.7319 35.9757H30.637L30.8032 35.4107H34.4259L42.6019 8.124H42.5354L24.4219 35.9757H23.7904L22.2283 8.124H22.1618L14.019 35.4107H17.675L17.5088 35.9757H9.53217L9.69835 35.4107H13.3543L21.4971 8.124H17.8411L18.0073 7.55899H28.244Z" fill="black"/>
<path d="M106.05 17.8623L104.754 22.2494H104.421C104.421 21.9503 104.421 21.5847 104.321 21.1526C104.222 20.7206 104.089 20.2553 103.856 19.8232C103.623 19.3911 103.258 19.0255 102.759 18.7264C102.261 18.4273 101.596 18.2611 100.765 18.2611H96.7104L94.3507 26.1713H95.7798C96.4113 26.1713 96.9763 26.0716 97.4748 25.9054C97.9734 25.7392 98.4055 25.4733 98.771 25.1409C99.1699 24.8086 99.5022 24.4098 99.8346 23.9445C100.167 23.4791 100.466 22.9474 100.765 22.3824H101.098L98.7378 30.359H98.4054C98.4054 29.8604 98.4054 29.3951 98.4054 28.9298C98.4054 28.4645 98.2725 28.0657 98.1063 27.7001C97.9401 27.3678 97.6743 27.0686 97.3419 26.8692C97.0095 26.6698 96.5442 26.5701 95.946 26.5701H94.2177L91.4591 35.8097H95.6469C96.4445 35.8097 97.1757 35.6767 97.8737 35.4109C98.5716 35.145 99.2696 34.7794 99.9011 34.3141C100.533 33.8488 101.098 33.2838 101.629 32.6523C102.161 32.0208 102.593 31.3228 102.992 30.5916H103.324L101.663 36.2085H85.3105L85.4102 35.8429H87.77L92.988 18.3276H90.6282L90.7279 17.962H106.05V17.8623Z" fill="black"/>
<path d="M109.074 18.228L109.174 17.8624H113.029C113.761 17.8624 114.459 17.8624 115.157 17.8291C115.854 17.8291 116.586 17.7959 117.284 17.7959C117.948 17.7959 118.646 17.8624 119.344 17.9953C120.042 18.1283 120.64 18.3609 121.172 18.6933C121.671 19.0256 122.07 19.4577 122.302 20.0227C122.535 20.5877 122.535 21.2857 122.302 22.1498C122.103 22.8478 121.77 23.4128 121.305 23.9113C120.873 24.4099 120.341 24.8087 119.776 25.1078C119.211 25.4069 118.58 25.6396 117.948 25.8058C117.317 25.9719 116.685 26.0716 116.087 26.1381V26.2711C116.818 26.4372 117.55 26.5702 118.148 26.7364C118.746 26.9025 119.245 27.1352 119.643 27.4343C120.042 27.7334 120.275 28.1655 120.408 28.7305C120.541 29.2623 120.474 29.9935 120.275 30.9241C120.042 31.9876 119.843 32.8518 119.71 33.5165C119.577 34.148 119.51 34.6798 119.477 35.0121C119.477 35.3777 119.51 35.6104 119.643 35.7433C119.776 35.8763 119.976 35.9095 120.308 35.9095C120.64 35.9095 120.973 35.8098 121.239 35.6104C121.505 35.4109 121.77 35.2448 122.003 35.0454L122.203 35.278C121.97 35.4442 121.77 35.6104 121.571 35.7433C121.372 35.8763 121.139 36.0092 120.906 36.1089C120.674 36.2086 120.375 36.3083 120.042 36.3416C119.71 36.408 119.311 36.4413 118.846 36.4413C117.915 36.4413 117.217 36.3083 116.785 36.0092C116.353 35.7101 116.054 35.3445 115.921 34.8792C115.788 34.4471 115.788 33.9486 115.888 33.4168C115.987 32.885 116.087 32.4197 116.22 31.9544C116.386 31.2565 116.552 30.5917 116.685 29.927C116.818 29.2623 116.852 28.6973 116.785 28.1655C116.719 27.667 116.519 27.2349 116.154 26.9358C115.788 26.6367 115.223 26.4705 114.425 26.4705H112.73L109.972 35.7101H112.331L112.232 36.0757H103.79L103.89 35.7101H106.249L111.467 18.1947H109.108L109.074 18.228ZM113.827 26.1381C114.592 26.1381 115.223 26.0384 115.722 25.839C116.22 25.6396 116.652 25.3405 116.984 25.0081C117.317 24.6757 117.583 24.2769 117.749 23.8116C117.948 23.3795 118.115 22.9142 118.247 22.4489C118.48 21.6845 118.613 21.053 118.68 20.5212C118.746 19.9895 118.68 19.5574 118.547 19.1918C118.414 18.8594 118.148 18.5936 117.782 18.4274C117.417 18.2612 116.918 18.1615 116.253 18.1615C116.054 18.1615 115.888 18.1615 115.688 18.1615C115.489 18.1615 115.289 18.1947 115.123 18.228L112.764 26.1381H113.827Z" fill="black"/>
</g>
<defs>
<clipPath id="clip0_103_7250">
<rect width="112.936" height="28.882" fill="white" transform="translate(9.53217 7.55899)"/>
</clipPath>
</defs>
</svg>
